<?xml version="1.0" encoding="UTF-8"?>
<svg width="100px" height="100px" viewBox="0 0 100 100" version="1.1" xmlns="http://www.w3.org/2000/svg" xmlns:xlink="http://www.w3.org/1999/xlink">
    <!-- Generator: Sketch 44.1 (41455) - http://www.bohemiancoding.com/sketch -->
    <title>Slice 1</title>
    <desc>Created with Sketch.</desc>
    <defs>
        <linearGradient x1="112.911499%" y1="108.720581%" x2="6.46229183%" y2="6.98429312%" id="linearGradient-1">
            <stop stop-color="#B4ED50" offset="0%"></stop>
            <stop stop-color="#53A0FE" offset="100%"></stop>
        </linearGradient>
    </defs>
    <g id="Page-1" stroke="none" stroke-width="1" fill="none" fill-rule="evenodd">
        <g id="favicon" fill-rule="nonzero">
            <rect id="Rectangle-path" fill="url(#linearGradient-1)" x="0" y="0" width="100" height="100" rx="20"></rect>
            <path d="M45.2,69.07 C45.2933333,69.1633333 45.6433333,69.55 46.25,70.23 C46.8566667,70.9033333 47.16,71.4733333 47.16,71.94 L47.16,71.94 C47.1133333,72.0333333 47.01,72.1733333 46.85,72.36 C46.6833333,72.5466667 46.5766667,72.64 46.53,72.64 L46.53,72.64 L38.27,72.64 C37.9433333,72.36 37.3966667,71.8366667 36.63,71.07 C35.8566667,70.2966667 35.12,69.54 34.42,68.8 L34.42,68.8 C33.4866667,67.8133333 32.67,66.7966667 31.97,65.75 C31.27,64.6966667 30.4066667,63.3066667 29.38,61.58 L29.38,61.58 C29.24,61.3933333 29.1133333,61.0666667 29,60.6 C28.88,60.1333333 28.75,59.8066667 28.61,59.62 L28.61,59.62 C27.2566667,57.8 25.0633333,56.89 22.03,56.89 L22.03,56.89 C21.9366667,56.89 21.8566667,56.9266667 21.79,57 C21.7166667,57.0666667 21.68,57.1233333 21.68,57.17 L21.68,57.17 C22.1,61.1833333 22.51,64.58 22.91,67.36 C23.3033333,70.1333333 23.57,71.8466667 23.71,72.5 L23.71,72.5 C23.71,73.3466667 23.5,73.77 23.08,73.77 L23.08,73.77 C22.4266667,73.77 21.75,73.6966667 21.05,73.55 L21.05,73.55 C20.8166667,73.5033333 20.5266667,73.4566667 20.18,73.41 C19.8266667,73.3633333 19.4166667,73.34 18.95,73.34 L18.95,73.34 C18.0166667,73.34 17.06,73.41 16.08,73.55 L16.08,73.55 C15.7533333,73.6033333 15.3,73.65 14.72,73.69 C14.1333333,73.7433333 13.6066667,73.77 13.14,73.77 L13.14,73.77 C12.8133333,73.77 12.6266667,73.6733333 12.58,73.48 L12.58,73.48 C12.5333333,73.0133333 12.4766667,72.42 12.41,71.7 C12.3366667,70.9733333 12.3,70.3766667 12.3,69.91 L12.3,69.91 C12.2533333,67.6233333 12.16,65.0466667 12.02,62.18 C11.88,59.3066667 11.7866667,57.31 11.74,56.19 L11.74,56.19 C11.3666667,48.2566667 11.18,42.3533333 11.18,38.48 L11.18,38.48 C11.18,38.0133333 11.2733333,37.4066667 11.46,36.66 L11.46,36.66 C11.6466667,35.82 11.74,35.0966667 11.74,34.49 L11.74,34.49 C11.74,34.1633333 11.7066667,33.8033333 11.64,33.41 C11.5666667,33.01 11.53,32.6933333 11.53,32.46 L11.53,32.46 C11.53,32.18 11.6,31.9466667 11.74,31.76 L11.74,31.76 L11.74,29.24 C11.3666667,29.1466667 11.11,28.96 10.97,28.68 L10.97,28.68 C11.2966667,28.2133333 11.88,27.8866667 12.72,27.7 C13.56,27.5133333 14.6566667,27.3733333 16.01,27.28 L16.01,27.28 C16.1966667,27.28 16.6166667,27.2333333 17.27,27.14 C17.9233333,27.0466667 18.2966667,26.93 18.39,26.79 L18.39,26.79 C18.53,26.6033333 18.9266667,26.4633333 19.58,26.37 C20.2333333,26.2766667 20.91,26.23 21.61,26.23 L21.61,26.23 C22.59,26.23 23.7333333,26.3933333 25.04,26.72 L25.04,26.72 C25.4133333,26.7666667 25.8333333,26.8366667 26.3,26.93 C26.7666667,27.0233333 27.28,27.0933333 27.84,27.14 L27.84,27.14 C30.7333333,27.3266667 33.1133333,27.6433333 34.98,28.09 C36.8466667,28.53 38.5033333,29.4733333 39.95,30.92 L39.95,30.92 C40.23,31.2466667 40.78,32.2866667 41.6,34.04 C42.4133333,35.7866667 42.8666667,36.87 42.96,37.29 L42.96,37.29 C43.24,38.41 43.4633333,39.4733333 43.63,40.48 C43.79,41.48 43.87,42.0033333 43.87,42.05 L43.87,42.05 C43.87,43.9633333 43.4266667,45.7733333 42.54,47.48 C41.6533333,49.18 40.4166667,50.66 38.83,51.92 L38.83,51.92 C38.7833333,51.9666667 38.2233333,52.3633333 37.15,53.11 L37.15,53.11 C36.03,53.8566667 35.47,54.2533333 35.47,54.3 L35.47,54.3 C37.6166667,57.0533333 39.74,60.2033333 41.84,63.75 L41.84,63.75 L42.82,65.44 C42.9133333,65.5733333 43.17,66.0266667 43.59,66.8 C44.01,67.5666667 44.5466667,68.3233333 45.2,69.07 L45.2,69.07 Z M22.03,27.56 C21.7033333,27.84 21.11,28.3533333 20.25,29.1 C19.3833333,29.8466667 18.9266667,30.2666667 18.88,30.36 L18.88,30.36 C19.44,30.36 19.9066667,30.1733333 20.28,29.8 L20.28,29.8 C20.3266667,29.8466667 20.35,29.9633333 20.35,30.15 L20.35,30.15 C20.35,30.3833333 19.8266667,30.84 18.78,31.52 C17.7266667,32.1933333 17.06,32.53 16.78,32.53 L16.78,32.53 C16.64,32.9966667 16.15,33.6966667 15.31,34.63 C14.47,35.5633333 14.0033333,36.0766667 13.91,36.17 L13.91,36.17 L14.54,36.17 L16.36,35.05 C17.2,34.49 17.9,34.0933333 18.46,33.86 C19.02,33.6266667 19.8366667,33.51 20.91,33.51 L20.91,33.51 C20.9566667,33.51 21.2033333,33.5 21.65,33.48 C22.09,33.4533333 24.41,33.44 28.61,33.44 L28.61,33.44 C28.9833333,33.44 29.3233333,33.3133333 29.63,33.06 C29.93,32.8 30.2666667,32.4366667 30.64,31.97 L30.64,31.97 C30.92,31.5966667 31.2233333,31.27 31.55,30.99 C31.8766667,30.71 32.2033333,30.57 32.53,30.57 L32.53,30.57 C32.53,30.4766667 32.4966667,30.3833333 32.43,30.29 C32.3566667,30.1966667 32.2733333,30.15 32.18,30.15 L32.18,30.15 C31.2466667,30.5233333 30.3133333,30.99 29.38,31.55 L29.38,31.55 C27.7933333,32.4366667 26.6966667,32.88 26.09,32.88 L26.09,32.88 C25.81,32.88 25.6233333,32.7633333 25.53,32.53 L25.53,32.53 C25.95,32.11 26.4066667,31.75 26.9,31.45 C27.3866667,31.1433333 27.7,30.9433333 27.84,30.85 L27.84,30.85 C29.1466667,30.01 30.0566667,29.2866667 30.57,28.68 L30.57,28.68 C30.3366667,28.68 30.08,28.74 29.8,28.86 C29.52,28.9733333 29.2866667,29.03 29.1,29.03 L29.1,29.03 L28.89,28.96 L25.53,30.64 C25.1566667,30.8266667 24.4333333,31.1766667 23.36,31.69 C22.2866667,32.2033333 21.61,32.46 21.33,32.46 L21.33,32.46 C21.33,31.9466667 21.4466667,31.61 21.68,31.45 C21.9133333,31.2833333 22.2633333,31.1533333 22.73,31.06 C23.1966667,30.9666667 23.5,30.8266667 23.64,30.64 L23.64,30.64 C23.7333333,30.5 23.9333333,30.3033333 24.24,30.05 C24.54,29.79 24.7966667,29.52 25.01,29.24 C25.2166667,28.96 25.32,28.68 25.32,28.4 L25.32,28.4 L23.57,29.03 L22.03,29.52 L22.03,28.96 C22.31,28.8666667 22.65,28.7033333 23.05,28.47 C23.4433333,28.2366667 23.7333333,28.0266667 23.92,27.84 L23.92,27.84 L23.64,27.91 C23.4533333,27.91 23.1966667,27.8533333 22.87,27.74 C22.5433333,27.62 22.2633333,27.56 22.03,27.56 L22.03,27.56 Z M19.16,27.84 L17.55,28.19 C17.55,28.2366667 17.5866667,28.2833333 17.66,28.33 C17.7266667,28.3766667 17.7833333,28.4 17.83,28.4 L17.83,28.4 C18.6233333,28.4 19.0666667,28.2133333 19.16,27.84 L19.16,27.84 Z M27.98,28.33 C27.8866667,28.33 27.6666667,28.3533333 27.32,28.4 C26.9666667,28.4466667 26.6633333,28.54 26.41,28.68 C26.15,28.82 26.02,29.03 26.02,29.31 L26.02,29.31 L26.09,29.52 C26.4633333,29.38 26.8966667,29.1933333 27.39,28.96 C27.8766667,28.7266667 28.12,28.5866667 28.12,28.54 L28.12,28.54 C28.12,28.54 28.0966667,28.5166667 28.05,28.47 C28.0033333,28.4233333 27.98,28.3766667 27.98,28.33 L27.98,28.33 Z M15.66,28.4 C13.98,28.4 13.14,28.75 13.14,29.45 L13.14,29.45 C13.14,29.4966667 13.1766667,29.6033333 13.25,29.77 C13.3166667,29.93 13.3733333,30.0566667 13.42,30.15 L13.42,30.15 C13.7466667,30.15 14.0266667,30.0466667 14.26,29.84 C14.4933333,29.6266667 14.75,29.3333333 15.03,28.96 C15.31,28.5866667 15.52,28.4 15.66,28.4 L15.66,28.4 Z M17.34,28.89 C17.34,28.7966667 17.2833333,28.6933333 17.17,28.58 C17.05,28.46 16.9433333,28.4 16.85,28.4 L16.85,28.4 C16.4766667,28.4 15.94,28.7166667 15.24,29.35 C14.54,29.9766667 14.0966667,30.5 13.91,30.92 L13.91,30.92 C14.2366667,30.92 14.9366667,30.5233333 16.01,29.73 L16.01,29.73 C16.7566667,29.17 17.2,28.89 17.34,28.89 L17.34,28.89 Z M16.78,30.15 C15.3333333,30.6633333 14.3533333,31.2933333 13.84,32.04 C13.3266667,32.7866667 13.07,33.8833333 13.07,35.33 L13.07,35.33 L13.42,35.33 C14.1666667,33.6966667 16.1966667,31.5733333 19.51,28.96 L19.51,28.96 L19.51,28.68 C19.1366667,28.68 18.66,28.95 18.08,29.49 C17.4933333,30.0233333 17.1533333,30.3133333 17.06,30.36 L17.06,30.36 C16.9666667,30.36 16.8966667,30.3366667 16.85,30.29 C16.8033333,30.2433333 16.78,30.1966667 16.78,30.15 L16.78,30.15 Z M31.69,28.68 C31.5966667,28.68 31.3866667,28.9033333 31.06,29.35 C30.7333333,29.79 30.5233333,30.0566667 30.43,30.15 L30.43,30.15 L30.57,30.36 C30.71,30.2666667 31.0733333,30.08 31.66,29.8 C32.24,29.52 32.53,29.2633333 32.53,29.03 L32.53,29.03 C32.2966667,29.03 32.0166667,28.9133333 31.69,28.68 L31.69,28.68 Z M36.59,30.36 C36.59,30.1733333 36.4166667,30.0333333 36.07,29.94 C35.7166667,29.8466667 35.4,29.8 35.12,29.8 L35.12,29.8 C34.6533333,29.8 33.6733333,30.35 32.18,31.45 C30.6866667,32.5433333 29.94,33.23 29.94,33.51 L29.94,33.51 C30.4533333,33.51 31.5033333,33.0666667 33.09,32.18 L33.09,32.18 C34.77,31.2466667 35.9366667,30.7333333 36.59,30.64 L36.59,30.64 L36.59,30.36 Z M33.3,34.63 C33.5333333,34.63 33.8966667,34.42 34.39,34 C34.8766667,33.58 35.3533333,33.1366667 35.82,32.67 L35.82,32.67 C36.5666667,31.9233333 37.1033333,31.4333333 37.43,31.2 L37.43,31.2 C36.9633333,31.2 35.7266667,31.62 33.72,32.46 C31.7133333,33.3 30.71,33.8833333 30.71,34.21 L30.71,34.21 C30.71,34.6766667 31.1066667,34.9566667 31.9,35.05 L31.9,35.05 C32.0866667,35.05 32.3333333,34.9333333 32.64,34.7 C32.94,34.4666667 33.16,34.3033333 33.3,34.21 L33.3,34.21 L33.3,34.63 Z M39.39,32.53 C39.25,32.39 39.0633333,32.24 38.83,32.08 C38.5966667,31.9133333 38.41,31.8066667 38.27,31.76 L38.27,31.76 C37.8966667,31.76 36.66,32.5766667 34.56,34.21 L34.56,34.21 C34.3266667,34.3966667 34.0833333,34.5733333 33.83,34.74 C33.57,34.9 33.3,35.0966667 33.02,35.33 L33.02,35.33 L33.02,35.68 C33.4866667,35.68 34,35.5766667 34.56,35.37 C35.12,35.1566667 35.6333333,34.91 36.1,34.63 L36.1,34.63 C37.3133333,33.93 38.2933333,33.58 39.04,33.58 L39.04,33.58 C39.04,33.44 39.1,33.2533333 39.22,33.02 C39.3333333,32.7866667 39.39,32.6233333 39.39,32.53 L39.39,32.53 Z M35.54,37.29 C36.2866667,36.9633333 37.1266667,36.38 38.06,35.54 L38.06,35.54 C38.5733333,35.0266667 39.11,34.5833333 39.67,34.21 L39.67,34.21 C39.6233333,34.1633333 39.5066667,34.14 39.32,34.14 L39.32,34.14 C38.86,34.14 38.29,34.2933333 37.61,34.6 C36.93,34.9 36.31,35.2133333 35.75,35.54 C35.19,35.8666667 34.84,36.0766667 34.7,36.17 L34.7,36.17 C34.7,36.5433333 34.98,36.9166667 35.54,37.29 L35.54,37.29 Z M12.86,41 C12.86,41 12.8833333,41.2466667 12.93,41.74 C12.9766667,42.2266667 13.0466667,42.5866667 13.14,42.82 L13.14,42.82 C13.7933333,42.1666667 14.4,41.62 14.96,41.18 C15.52,40.7333333 16.01,40.44 16.43,40.3 L16.43,40.3 C16.6166667,39.74 17.0833333,39.25 17.83,38.83 L17.83,38.83 C18.39,38.4566667 18.7633333,38.13 18.95,37.85 L18.95,37.85 C19.0433333,37.6633333 19.1266667,37.29 19.2,36.73 C19.2666667,36.17 19.44,35.89 19.72,35.89 L19.72,35.89 C20.1866667,35.89 20.49,36.17 20.63,36.73 L20.63,36.73 C20.5833333,36.9633333 20.56,37.71 20.56,38.97 L20.56,38.97 C20.56,39.39 20.7,40.6266667 20.98,42.68 L20.98,42.68 C21.26,44.92 21.4,46.4133333 21.4,47.16 L21.4,47.16 C21.54,47.16 22.0666667,47.4066667 22.98,47.9 C23.8866667,48.3866667 24.7366667,48.63 25.53,48.63 L25.53,48.63 L28.19,48.7 C29.9633333,48.7 31.54,48.3733333 32.92,47.72 C34.2933333,47.0666667 34.98,46.0633333 34.98,44.71 L34.98,44.71 C34.98,43.4966667 34.7366667,41.91 34.25,39.95 C33.7566667,37.99 33.1833333,37.01 32.53,37.01 L32.53,37.01 C31.9233333,37.01 31.5166667,36.9533333 31.31,36.84 C31.0966667,36.72 30.92,36.52 30.78,36.24 C30.64,35.96 30.3833333,35.75 30.01,35.61 L30.01,35.61 C29.8233333,35.5633333 29.4633333,35.4933333 28.93,35.4 C28.39,35.3066667 28.0266667,35.0966667 27.84,34.77 L27.84,34.77 C27.7933333,34.8166667 27.7366667,34.9233333 27.67,35.09 C27.5966667,35.25 27.49,35.33 27.35,35.33 L27.35,35.33 C27.07,35.33 26.93,35.1433333 26.93,34.77 L26.93,34.77 C24.2233333,34.77 22.2533333,34.8866667 21.02,35.12 C19.78,35.3533333 18.3666667,35.9833333 16.78,37.01 L16.78,37.01 L16.43,36.73 C16.57,36.59 16.78,36.4166667 17.06,36.21 C17.34,35.9966667 17.48,35.8666667 17.48,35.82 L17.48,35.82 C17.48,35.82 17.4466667,35.7966667 17.38,35.75 C17.3066667,35.7033333 17.27,35.6566667 17.27,35.61 L17.27,35.61 L13.14,37.57 C12.9066667,37.6633333 12.7566667,37.9433333 12.69,38.41 C12.6166667,38.8766667 12.58,39.1566667 12.58,39.25 L12.58,39.25 C13.1866667,39.25 13.6533333,39.1233333 13.98,38.87 C14.3066667,38.61 14.6466667,38.2366667 15,37.75 C15.3466667,37.2566667 15.6366667,36.9166667 15.87,36.73 L15.87,36.73 L16.22,37.29 L14.26,39.46 C14.4933333,39.4133333 14.7633333,39.2266667 15.07,38.9 C15.37,38.5733333 15.6366667,38.3866667 15.87,38.34 L15.87,38.34 L15.87,38.69 C16.4766667,37.8033333 17.41,37.36 18.67,37.36 L18.67,37.36 L18.6,37.71 L17.2,38.41 C15.8466667,39.0166667 14.7866667,39.5433333 14.02,39.99 C13.2466667,40.43 12.86,40.7666667 12.86,41 L12.86,41 Z M40.09,35.05 C39.7166667,35.0966667 39.1,35.4466667 38.24,36.1 C37.3733333,36.7533333 36.94,37.2433333 36.94,37.57 L36.94,37.57 C37.36,37.29 38.06,37.0566667 39.04,36.87 L39.04,36.87 C40.02,36.6833333 40.6966667,36.45 41.07,36.17 L41.07,36.17 C40.93,36.03 40.7566667,35.8333333 40.55,35.58 C40.3366667,35.32 40.1833333,35.1433333 40.09,35.05 L40.09,35.05 Z M35.75,40.44 C36.31,40.44 37.1633333,40.02 38.31,39.18 C39.45,38.34 40.2766667,37.6166667 40.79,37.01 L40.79,37.01 C40.51,37.0566667 39.9266667,37.21 39.04,37.47 C38.1533333,37.7233333 37.4533333,37.9433333 36.94,38.13 L36.94,38.13 C36.4266667,38.27 36.1,38.5166667 35.96,38.87 C35.82,39.2166667 35.75,39.74 35.75,40.44 L35.75,40.44 Z M41.14,38.13 C40.8133333,38.3633333 40.2433333,38.7033333 39.43,39.15 C38.61,39.59 37.85,39.9733333 37.15,40.3 L37.15,40.3 L36.94,40.86 C37.22,40.86 37.6633333,40.79 38.27,40.65 C38.8766667,40.51 39.3433333,40.3 39.67,40.02 L39.67,40.02 L39.67,40.3 C39.7166667,40.3 40.09,40.1966667 40.79,39.99 C41.49,39.7766667 41.84,39.6 41.84,39.46 L41.84,39.46 C41.84,39.32 41.77,39.1 41.63,38.8 C41.49,38.4933333 41.3266667,38.27 41.14,38.13 L41.14,38.13 Z M15.87,44.5 L15.94,44.71 C15.94,44.7566667 15.72,45.0033333 15.28,45.45 C14.8333333,45.89 14.4933333,46.2033333 14.26,46.39 L14.26,46.39 C14.7733333,46.3433333 15.3566667,46.04 16.01,45.48 L16.01,45.48 C16.1033333,45.4333333 16.35,45.27 16.75,44.99 C17.1433333,44.71 17.5966667,44.57 18.11,44.57 L18.11,44.57 C18.2033333,44.57 18.38,44.5 18.64,44.36 C18.8933333,44.22 19.0666667,44.08 19.16,43.94 L19.16,43.94 C19.16,43.52 19.1133333,42.8433333 19.02,41.91 L19.02,41.91 C18.9266667,40.9766667 18.88,40.2533333 18.88,39.74 L18.88,39.74 L18.95,38.9 C18.3433333,39.32 17.26,40.1133333 15.7,41.28 C14.1333333,42.4466667 13.35,43.1 13.35,43.24 L13.35,43.24 C13.35,43.2866667 13.3866667,43.3566667 13.46,43.45 C13.5266667,43.5433333 13.6066667,43.59 13.7,43.59 L13.7,43.59 L14.26,43.1 L18.04,41.14 L18.32,41.14 C18.32,41.6533333 17.5033333,42.32 15.87,43.14 C14.2366667,43.9533333 13.3266667,44.4066667 13.14,44.5 L13.14,44.5 L13.14,46.67 C13.3266667,46.4833333 13.76,46.17 14.44,45.73 C15.1133333,45.2833333 15.59,44.8733333 15.87,44.5 L15.87,44.5 Z M36.38,42.26 L36.31,42.61 C36.31,43.31 36.45,43.66 36.73,43.66 L36.73,43.66 C37.3833333,43.66 38.3633333,43.0533333 39.67,41.84 L39.67,41.84 C39.7633333,41.7466667 40.0566667,41.5033333 40.55,41.11 C41.0366667,40.71 41.4666667,40.44 41.84,40.3 L41.84,40.3 L41.84,40.02 C41.3266667,40.2533333 40.64,40.4866667 39.78,40.72 C38.9133333,40.9533333 38.3166667,41.1166667 37.99,41.21 L37.99,41.21 L37.99,41.7 L36.38,42.26 Z M41.98,41.07 C41.7,41.3966667 40.86,42.0033333 39.46,42.89 L39.46,42.89 L36.94,44.5 L36.94,44.78 C37.1266667,44.78 37.69,44.5933333 38.63,44.22 L38.63,44.22 C39.79,43.8 40.4166667,43.59 40.51,43.59 L40.51,43.59 C40.6033333,43.59 40.7566667,43.6266667 40.97,43.7 C41.1766667,43.7666667 41.3733333,43.8 41.56,43.8 L41.56,43.8 C41.56,44.2666667 41.2566667,44.7 40.65,45.1 C40.0433333,45.4933333 39.4733333,45.7966667 38.94,46.01 C38.4,46.2166667 38.0833333,46.3433333 37.99,46.39 L37.99,46.39 L37.99,46.67 C39.39,46.11 40.44,45.83 41.14,45.83 L41.14,45.83 C41.4666667,45.83 41.7,45.4333333 41.84,44.64 C41.98,43.8466667 42.05,42.9833333 42.05,42.05 L42.05,42.05 L41.98,41.07 Z M18.67,41.7 C18.67,42.3533333 18.4733333,42.9033333 18.08,43.35 C17.68,43.79 17.13,44.2433333 16.43,44.71 L16.43,44.71 L16.43,43.94 L18.67,41.7 Z M36.38,45.83 L36.38,46.18 C36.52,46.18 37.07,45.9833333 38.03,45.59 C38.9833333,45.19 39.6233333,44.8966667 39.95,44.71 L39.95,44.71 L39.67,44.5 L36.38,45.83 Z M19.16,44.71 C19.02,44.8033333 18.4366667,45.1066667 17.41,45.62 L17.41,45.62 C16.01,46.32 14.95,46.9166667 14.23,47.41 C13.5033333,47.8966667 13.14,48.49 13.14,49.19 L13.14,49.19 C13.56,48.8633333 14.2033333,48.3966667 15.07,47.79 C15.93,47.1833333 16.5,46.88 16.78,46.88 L16.78,46.88 L16.78,46.39 C16.9666667,46.25 17.3166667,46.03 17.83,45.73 C18.3433333,45.4233333 18.7166667,45.27 18.95,45.27 L18.95,45.27 C18.81,45.55 18.0633333,46.24 16.71,47.34 C15.3566667,48.4333333 14.4233333,49.12 13.91,49.4 L13.91,49.4 L13.91,49.75 C14.61,49.33 15.58,48.8533333 16.82,48.32 C18.0533333,47.78 18.8333333,47.4166667 19.16,47.23 L19.16,47.23 L19.58,47.23 C19.58,46.2033333 19.44,45.3633333 19.16,44.71 L19.16,44.71 Z M29.73,53.25 C31.27,53.25 32.9033333,52.9233333 34.63,52.27 C36.3566667,51.6166667 37.8166667,50.7666667 39.01,49.72 C40.1966667,48.6666667 40.79,47.6266667 40.79,46.6 L40.79,46.6 C40.09,47.0666667 39.2866667,47.5333333 38.38,48 C37.4666667,48.4666667 36.8233333,48.8166667 36.45,49.05 L36.45,49.05 C35.3766667,49.6566667 34.2566667,50.3 33.09,50.98 C31.9233333,51.6533333 30.8033333,52.41 29.73,53.25 L29.73,53.25 Z M13.28,52.9 C13.28,54.2533333 13.42,55.21 13.7,55.77 L13.7,55.77 C14.0266667,55.35 14.88,54.58 16.26,53.46 C17.6333333,52.34 18.53,51.7333333 18.95,51.64 L18.95,51.64 C19.4166667,51.64 19.86,51.3366667 20.28,50.73 L20.28,50.73 C20.5133333,50.3566667 20.76,50.0766667 21.02,49.89 C21.2733333,49.7033333 21.61,49.61 22.03,49.61 L22.03,49.61 L22.1,49.33 L21.47,49.4 L14.82,53.04 L14.26,52.69 C14.54,52.27 15.3333333,51.6633333 16.64,50.87 L16.64,50.87 C17.7133333,50.2166667 18.53,49.6466667 19.09,49.16 C19.65,48.6666667 19.93,48.1866667 19.93,47.72 L19.93,47.72 C19.6966667,47.72 19.3466667,47.8733333 18.88,48.18 C18.4133333,48.48 18.11,48.63 17.97,48.63 L17.97,48.63 C17.6433333,48.63 16.8266667,49.05 15.52,49.89 L15.52,49.89 C14.26,50.6366667 13.56,51.0333333 13.42,51.08 L13.42,51.08 L13.28,52.9 Z M26.65,56.12 L26.93,55.21 C26.65,55.21 26.29,55.2566667 25.85,55.35 C25.4033333,55.4433333 25.0633333,55.49 24.83,55.49 L24.83,55.49 C24.83,54.8833333 25.2166667,54.3466667 25.99,53.88 C26.7566667,53.4133333 27.77,52.9 29.03,52.34 L29.03,52.34 C29.2166667,52.2466667 29.5433333,52.0966667 30.01,51.89 C30.4766667,51.6766667 30.7333333,51.5 30.78,51.36 L30.78,51.36 C30.5933333,51.3133333 30.5,51.1266667 30.5,50.8 L30.5,50.8 C30.5,50.4733333 30.5933333,50.31 30.78,50.31 L30.78,50.31 C31.2466667,50.31 31.48,50.52 31.48,50.94 L31.48,50.94 C31.8533333,50.94 32.38,50.72 33.06,50.28 C33.7333333,49.8333333 34.14,49.5633333 34.28,49.47 L34.28,49.47 C34.7933333,49.05 35.4933333,48.5833333 36.38,48.07 L36.38,48.07 C35.82,48.07 35.25,48.2233333 34.67,48.53 C34.0833333,48.83 33.6266667,49.05 33.3,49.19 L33.3,49.19 C32.46,49.5166667 31.2466667,49.8333333 29.66,50.14 C28.0733333,50.44 26.7666667,50.59 25.74,50.59 L25.74,50.59 C25.3666667,50.59 25.11,50.5666667 24.97,50.52 L24.97,50.52 C24.0366667,51.1266667 23.01,51.6633333 21.89,52.13 L21.89,52.13 C21.7966667,52.1766667 21.33,52.48 20.49,53.04 L20.49,53.04 C19.93,53.5066667 19.3,53.8566667 18.6,54.09 L18.6,54.09 L18.6,53.53 C19.3933333,53.2033333 20.4333333,52.6666667 21.72,51.92 C23,51.1733333 23.7333333,50.6366667 23.92,50.31 L23.92,50.31 C23.8266667,50.17 23.6633333,50.0433333 23.43,49.93 C23.1966667,49.81 23.01,49.75 22.87,49.75 L22.87,49.75 C22.6833333,49.75 22.1,50.0433333 21.12,50.63 C20.14,51.21 19.2533333,51.8966667 18.46,52.69 C17.6666667,53.4833333 17.27,54.2533333 17.27,55 L17.27,55 C18.53,54.7666667 19.8133333,54.44 21.12,54.02 C22.4266667,53.6 23.2666667,53.2733333 23.64,53.04 L23.64,53.04 L27.49,51.36 C27.5366667,51.2666667 27.8766667,51.1266667 28.51,50.94 C29.1366667,50.7533333 29.6366667,50.6133333 30.01,50.52 L30.01,50.52 L30.08,50.8 C30.08,51.1266667 29.4966667,51.5466667 28.33,52.06 C27.1633333,52.5733333 25.4133333,53.25 23.08,54.09 L23.08,54.09 C21.2133333,54.7433333 19.9066667,55.2333333 19.16,55.56 L19.16,55.56 C19.0666667,55.6066667 18.87,55.7833333 18.57,56.09 C18.2633333,56.39 18.0166667,56.6566667 17.83,56.89 L17.83,56.89 C18.3433333,56.89 18.8566667,56.74 19.37,56.44 C19.8833333,56.1333333 20.3033333,55.91 20.63,55.77 L20.63,55.77 C21.8433333,55.8633333 23.0333333,55.9466667 24.2,56.02 C25.3666667,56.0866667 26.1833333,56.12 26.65,56.12 L26.65,56.12 Z M19.16,50.31 L19.16,49.96 L17.55,50.8 L17.55,51.08 L19.16,50.31 Z M29.17,53.25 L28.05,53.81 L28.47,53.88 C28.75,53.88 28.9366667,53.8466667 29.03,53.78 C29.1233333,53.7066667 29.17,53.53 29.17,53.25 L29.17,53.25 Z M28.33,55.77 C28.61,55.77 29.2066667,55.4566667 30.12,54.83 C31.0266667,54.1966667 31.62,53.7866667 31.9,53.6 L31.9,53.6 C31.4333333,53.6 30.57,53.8333333 29.31,54.3 C28.05,54.7666667 27.42,55.0466667 27.42,55.14 L27.42,55.14 C27.42,55.2333333 27.55,55.3633333 27.81,55.53 C28.0633333,55.69 28.2366667,55.77 28.33,55.77 L28.33,55.77 Z M31.13,55.21 L33.86,54.44 L33.58,53.81 C32.2733333,54.2766667 31.4566667,54.7433333 31.13,55.21 L31.13,55.21 Z M15.1,56.12 C15.52,56.12 15.9066667,55.91 16.26,55.49 C16.6066667,55.07 16.78,54.6266667 16.78,54.16 L16.78,54.16 C16.5933333,54.16 16.3733333,54.3 16.12,54.58 C15.86,54.86 15.7066667,55 15.66,55 L15.66,55 L15.1,56.12 Z M13.91,59.06 C14.05,58.5933333 14.3533333,58.1966667 14.82,57.87 C15.2866667,57.5433333 15.9166667,57.1933333 16.71,56.82 L16.71,56.82 C17.9233333,56.1666667 18.67,55.63 18.95,55.21 L18.95,55.21 L15.31,56.61 C15.1233333,56.89 14.89,57.09 14.61,57.21 C14.33,57.3233333 14.1433333,57.4733333 14.05,57.66 C13.9566667,57.8466667 13.91,58.3133333 13.91,59.06 L13.91,59.06 Z M34.14,55.77 C33.7666667,55.77 33.3233333,55.9233333 32.81,56.23 C32.2966667,56.53 31.9233333,56.8433333 31.69,57.17 L31.69,57.17 L32.04,57.24 C32.2266667,57.24 32.67,57.1 33.37,56.82 C34.07,56.54 34.42,56.3533333 34.42,56.26 L34.42,56.26 C34.42,56.1666667 34.3866667,56.0633333 34.32,55.95 C34.2466667,55.83 34.1866667,55.77 34.14,55.77 L34.14,55.77 Z M31.34,56.05 C31.1533333,56.05 30.8733333,56.1566667 30.5,56.37 C30.1266667,56.5766667 29.87,56.75 29.73,56.89 L29.73,56.89 L29.73,57.45 L30.22,57.45 L31.69,56.12 L31.34,56.05 Z M19.65,57.66 L20.07,57.73 L19.72,58.29 L18.04,59.48 C16.9666667,60.2266667 16.1633333,60.8233333 15.63,61.27 C15.09,61.71 14.82,62.0933333 14.82,62.42 L14.82,62.42 L19.72,60.81 C20.5133333,60.81 20.91,60.6 20.91,60.18 L20.91,60.18 C20.91,59.5733333 20.7,58.3833333 20.28,56.61 L20.28,56.61 L14.26,60.18 L14.26,61.02 L14.54,61.02 C15.0066667,61.02 15.4633333,60.8566667 15.91,60.53 C16.35,60.2033333 16.8733333,59.7366667 17.48,59.13 L17.48,59.13 C17.9933333,58.6166667 18.4033333,58.2433333 18.71,58.01 C19.01,57.7766667 19.3233333,57.66 19.65,57.66 L19.65,57.66 Z M29.73,58.85 C29.7766667,58.9433333 29.8933333,59.19 30.08,59.59 C30.2666667,59.9833333 30.5,60.2733333 30.78,60.46 L30.78,60.46 C30.92,60.3666667 31.33,60.0533333 32.01,59.52 C32.6833333,58.98 33.2066667,58.64 33.58,58.5 L33.58,58.5 C33.58,58.78 33.5233333,58.99 33.41,59.13 C33.29,59.27 33.09,59.4333333 32.81,59.62 C32.53,59.8066667 32.32,59.9933333 32.18,60.18 L32.18,60.18 C32.74,60.18 33.44,60.04 34.28,59.76 L34.28,59.76 C35.2133333,59.48 35.9133333,59.34 36.38,59.34 L36.38,59.34 L36.94,59.41 L37.15,60.18 L35.26,62.14 L35.26,62.42 C35.7733333,62.3266667 36.38,62.13 37.08,61.83 C37.78,61.5233333 38.2966667,61.2066667 38.63,60.88 L38.63,60.88 C38.63,60.6933333 38.22,60.1933333 37.4,59.38 C36.58,58.56 36.03,58.01 35.75,57.73 L35.75,57.73 C35.5633333,57.73 35.2966667,57.8933333 34.95,58.22 C34.5966667,58.5466667 34.3266667,58.7566667 34.14,58.85 L34.14,58.85 C34.14,58.7566667 34.1166667,58.6766667 34.07,58.61 C34.0233333,58.5366667 34,58.5 34,58.5 L34,58.5 C34,58.4533333 34.21,58.2433333 34.63,57.87 C35.05,57.4966667 35.2833333,57.2166667 35.33,57.03 L35.33,57.03 L34.98,56.96 C34.56,56.96 34.1166667,57.0766667 33.65,57.31 C33.1833333,57.5433333 32.88,57.6833333 32.74,57.73 L32.74,57.73 C32.6466667,57.7766667 32.39,57.9166667 31.97,58.15 C31.55,58.3833333 31.1533333,58.5233333 30.78,58.57 L30.78,58.57 C30.78,58.2433333 30.71,58.08 30.57,58.08 L30.57,58.08 C30.43,58.08 30.15,58.3366667 29.73,58.85 L29.73,58.85 Z M33.3,65.64 C33.6266667,65.64 34.0233333,65.3866667 34.49,64.88 C34.9566667,64.36 35.3066667,64.1 35.54,64.1 L35.54,64.1 C35.5866667,64.1 35.67,64.1233333 35.79,64.17 C35.9033333,64.2166667 35.9833333,64.2633333 36.03,64.31 L36.03,64.31 C35.9366667,64.59 35.68,64.78 35.26,64.88 L35.26,64.88 C35.26,64.92 35.2966667,64.9866667 35.37,65.08 C35.4366667,65.1733333 35.4933333,65.22 35.54,65.22 L35.54,65.22 C35.82,65.22 36.58,64.9533333 37.82,64.42 C39.0533333,63.88 39.67,63.54 39.67,63.4 L39.67,63.4 C39.6233333,63.26 39.5433333,63.0733333 39.43,62.84 C39.31,62.6066667 39.2033333,62.3733333 39.11,62.14 L39.11,62.14 L36.94,63.75 L36.03,63.75 C36.03,63.47 36.37,63.18 37.05,62.88 C37.7233333,62.5733333 38.13,62.3266667 38.27,62.14 L38.27,62.14 L37.85,62.07 C37.29,62.07 36.5433333,62.3033333 35.61,62.77 L35.61,62.77 C34.77,63.2833333 33.9766667,63.54 33.23,63.54 L33.23,63.54 C32.95,63.54 32.7866667,63.4466667 32.74,63.26 L32.74,63.26 L34.14,61.86 C34.7933333,61.8133333 35.61,61.16 36.59,59.9 L36.59,59.9 C35.75,59.9 34.8166667,60.1566667 33.79,60.67 L33.79,60.67 C33.6033333,60.7166667 33.2666667,60.8333333 32.78,61.02 C32.2866667,61.2066667 31.8066667,61.3 31.34,61.3 L31.34,61.3 L31.34,60.81 L30.78,61.02 C30.9666667,61.3466667 31.3166667,61.92 31.83,62.74 C32.3433333,63.5533333 32.8333333,64.38 33.3,65.22 L33.3,65.22 L33.3,65.64 Z M22.03,71.8 C22.03,71.6133333 21.9266667,71.2633333 21.72,70.75 C21.5066667,70.2366667 21.33,69.98 21.19,69.98 L21.19,69.98 C20.8633333,69.98 20.3266667,70.19 19.58,70.61 L19.58,70.61 C18.9733333,71.03 18.4833333,71.24 18.11,71.24 L18.11,71.24 L15.31,71.24 C15.9633333,70.7266667 16.9433333,70.05 18.25,69.21 C19.5566667,68.37 20.5133333,67.7633333 21.12,67.39 L21.12,67.39 C20.6066667,67.39 20.13,67.4733333 19.69,67.64 C19.2433333,67.8 18.7166667,68.0466667 18.11,68.38 L18.11,68.38 C17.5033333,68.7 16.99,68.9433333 16.57,69.11 C16.15,69.27 15.6833333,69.35 15.17,69.35 L15.17,69.35 C15.0766667,69.35 14.9966667,69.3166667 14.93,69.25 C14.8566667,69.1766667 14.82,69.1166667 14.82,69.07 L14.82,69.07 C15.1933333,68.61 16.1733333,67.91 17.76,66.97 L17.76,66.97 C18.88,66.27 19.72,65.7233333 20.28,65.33 C20.84,64.93 21.12,64.5666667 21.12,64.24 L21.12,64.24 L20.84,61.37 C20.6533333,61.37 20.56,61.4866667 20.56,61.72 L20.56,61.72 C20.56,61.9533333 20.2466667,62.3266667 19.62,62.84 C18.9866667,63.3533333 18.6,63.6566667 18.46,63.75 L18.46,63.75 C17.34,64.5966667 16.6633333,65.16 16.43,65.44 L16.43,65.44 L17.83,64.88 L17.83,65.44 C18.2033333,65.1066667 18.6133333,64.87 19.06,64.73 C19.5,64.59 20.0933333,64.45 20.84,64.31 L20.84,64.31 C20.84,64.4033333 19.79,64.9166667 17.69,65.85 C15.59,66.7833333 14.4466667,67.25 14.26,67.25 L14.26,67.25 L14.26,72.36 C14.7266667,72.36 15.7666667,72.35 17.38,72.33 C18.9866667,72.31 20.5366667,72.1333333 22.03,71.8 L22.03,71.8 Z M13.91,65.08 C13.91,65.6866667 14.0266667,66.0833333 14.26,66.27 L14.26,66.27 C15.0533333,65.7566667 16.0333333,65.0233333 17.2,64.07 C18.3666667,63.11 19.2066667,62.28 19.72,61.58 L19.72,61.58 C19.1133333,61.58 18.46,61.72 17.76,62 C17.06,62.28 16.6166667,62.4433333 16.43,62.49 L16.43,62.49 C15.6833333,62.8633333 14.96,63.12 14.26,63.26 L14.26,63.26 C14.12,63.5866667 14.0266667,63.89 13.98,64.17 C13.9333333,64.45 13.91,64.7533333 13.91,65.08 L13.91,65.08 Z M34.42,66.27 C34.5133333,66.7366667 34.98,67.2966667 35.82,67.95 L35.82,67.95 C36.0066667,67.2966667 36.6033333,66.5866667 37.61,65.82 C38.61,65.0466667 39.4833333,64.5433333 40.23,64.31 L40.23,64.31 C40.23,64.2633333 40.1966667,64.2166667 40.13,64.17 C40.0566667,64.1233333 39.9966667,64.1 39.95,64.1 L39.95,64.1 C39.95,64.1466667 38.9,64.5666667 36.8,65.36 L36.8,65.36 C35.3533333,65.8266667 34.56,66.13 34.42,66.27 L34.42,66.27 Z M36.38,68.52 C36.7066667,69.0733333 37.0566667,69.35 37.43,69.35 L37.43,69.35 C37.7566667,69.35 38.0133333,69.1866667 38.2,68.86 C38.3866667,68.54 38.5633333,68.1666667 38.73,67.74 C38.89,67.32 39.0166667,67.0166667 39.11,66.83 L39.11,66.83 C39.2033333,66.7366667 39.5533333,66.5633333 40.16,66.31 C40.7666667,66.05 41.07,65.85 41.07,65.71 L41.07,65.71 C41.07,65.57 40.99,65.3966667 40.83,65.19 C40.6633333,64.9833333 40.51,64.88 40.37,64.88 L40.37,64.88 C39.95,64.88 39.38,65.2166667 38.66,65.89 C37.9333333,66.57 37.36,67.1633333 36.94,67.67 L36.94,67.67 C37.22,67.6233333 37.5133333,67.4966667 37.82,67.29 C38.12,67.0766667 38.3633333,66.9233333 38.55,66.83 L38.55,66.83 C38.6033333,66.8833333 38.63,66.9433333 38.63,67.01 C38.63,67.0766667 38.63,67.11 38.63,67.11 L38.63,67.11 C38.63,67.4366667 38.3466667,67.74 37.78,68.02 C37.22,68.3 36.7533333,68.4666667 36.38,68.52 L36.38,68.52 Z M21.26,66.77 C21.26,66.0633333 21.0966667,65.71 20.77,65.71 L20.77,65.71 C20.49,65.71 20.1166667,65.92 19.65,66.34 C19.1833333,66.76 18.8566667,67.11 18.67,67.39 L18.67,67.39 C18.9966667,67.2966667 19.3833333,67.17 19.83,67.01 C20.27,66.85 20.7466667,66.77 21.26,66.77 L21.26,66.77 Z M41.63,66.55 C40.9766667,67.3433333 40.0433333,68.0933333 38.83,68.8 L38.83,68.8 L38.83,69.07 L40.23,68.58 C41.5366667,68.1133333 42.19,67.81 42.19,67.67 L42.19,67.67 L41.63,66.55 Z M21.54,68.23 L21.12,68.23 L17.55,70.47 C18.4366667,70.47 19.3233333,70.2966667 20.21,69.95 C21.0966667,69.5966667 21.54,69.0233333 21.54,68.23 L21.54,68.23 Z M37.99,70.13 C38.27,70.5433333 38.6433333,70.82 39.11,70.96 L39.11,70.96 C39.7166667,70.6866667 40.37,70.29 41.07,69.77 C41.77,69.2566667 42.2133333,68.7433333 42.4,68.23 L42.4,68.23 L37.99,70.13 Z M41.07,71.73 C41.5833333,71.73 42.32,71.65 43.28,71.49 C44.2333333,71.3233333 44.71,71.1 44.71,70.82 L44.71,70.82 C44.6633333,70.68 44.56,70.53 44.4,70.37 C44.2333333,70.21 44.1266667,70.13 44.08,70.13 L44.08,70.13 C43.8,70.13 43.1833333,70.28 42.23,70.58 C41.27,70.88 40.6966667,71.1 40.51,71.24 L40.51,71.24 L41.07,71.73 Z M89.03,54.72 L89.03,57.73 C89.03,58.3366667 88.9566667,59.13 88.81,60.11 C88.67,61.09 88.5766667,61.7433333 88.53,62.07 L88.53,62.07 C88.1566667,64.2233333 87.97,65.7166667 87.97,66.55 L87.97,66.55 C87.97,66.6433333 88.0166667,66.82 88.11,67.08 C88.2033333,67.3333333 88.25,67.7166667 88.25,68.23 L88.25,68.23 C88.25,69.63 87.7966667,70.8566667 86.89,71.91 C85.9833333,72.9566667 84.8266667,73.48 83.42,73.48 L83.42,73.48 C82.8133333,73.48 81.95,73.3866667 80.83,73.2 L80.83,73.2 C80.5033333,73.1066667 79.92,73.0133333 79.08,72.92 L79.08,72.92 C73.7133333,72.5466667 68.8366667,71.6166667 64.45,70.13 L64.45,70.13 L63.89,70.13 C60.9966667,69.61 58.7466667,68.78 57.14,67.64 C55.5266667,66.4933333 53.9966667,64.8466667 52.55,62.7 L52.55,62.7 C51.29,59.06 50.1933333,55.3733333 49.26,51.64 L49.26,51.64 C49.3066667,51.4533333 49.3533333,51.22 49.4,50.94 C49.4466667,50.66 49.4933333,50.4266667 49.54,50.24 L49.54,50.24 L49.47,48.28 C49.47,47.9066667 49.5866667,47.4533333 49.82,46.92 C50.0533333,46.38 50.24,45.9233333 50.38,45.55 L50.38,45.55 C50.38,43.7766667 50.8,42.0166667 51.64,40.27 C52.48,38.5166667 53.4366667,37.3366667 54.51,36.73 L54.51,36.73 L54.23,36.45 C54.8833333,36.2633333 55.8633333,35.33 57.17,33.65 L57.17,33.65 C57.9166667,32.81 58.3133333,32.3666667 58.36,32.32 L58.36,32.32 C59.9466667,30.9666667 61.6166667,30.0933333 63.37,29.7 C65.1166667,29.3 67.4133333,29.0066667 70.26,28.82 L70.26,28.82 C70.7733333,28.82 71.5933333,28.7733333 72.72,28.68 L72.72,28.68 C73.3666667,28.5866667 74.24,28.4933333 75.34,28.4 C76.4333333,28.3066667 77.31,28.2366667 77.97,28.19 L77.97,28.19 C78.99,28.19 79.8766667,28.2966667 80.63,28.51 C81.3766667,28.7166667 82.0866667,28.96 82.76,29.24 C83.44,29.52 83.87,29.7066667 84.05,29.8 L84.05,29.8 C84.19,29.8 84.33,29.7666667 84.47,29.7 C84.6166667,29.6266667 84.7566667,29.5666667 84.89,29.52 L84.89,29.52 C84.89,29.66 85.0766667,29.9633333 85.45,30.43 C85.8233333,30.8966667 86.01,31.27 86.01,31.55 L86.01,31.55 C86.01,32.4833333 85.85,33.4866667 85.53,34.56 L85.53,34.56 C85.2433333,35.68 85.1,36.5666667 85.1,37.22 L85.1,37.22 C85.1,37.5933333 85.1233333,37.8966667 85.17,38.13 L85.17,38.13 C84.9366667,38.3166667 84.6566667,38.41 84.33,38.41 L84.33,38.41 C84.05,38.41 83.7233333,38.2366667 83.35,37.89 C82.9766667,37.5366667 82.6533333,37.3366667 82.38,37.29 L82.38,37.29 C82.1466667,37.2433333 81.2333333,37.0333333 79.64,36.66 C78.06,36.2866667 76.59,36.1 75.23,36.1 L75.23,36.1 C74.5766667,36.1 73.69,36.3333333 72.57,36.8 L72.57,36.8 C72.2433333,36.94 71.7533333,37.1033333 71.1,37.29 L71.1,37.29 C68.4933333,37.9433333 66.43,38.9933333 64.91,40.44 C63.39,41.8866667 62.2933333,43.5333333 61.62,45.38 C60.94,47.22 60.4133333,49.4 60.04,51.92 L60.04,51.92 C60.0866667,52.9466667 60.38,54.58 60.92,56.82 C61.4533333,59.06 61.8133333,60.18 62,60.18 L62,60.18 L65.29,63.75 C65.8966667,64.45 67.2066667,65 69.22,65.4 C71.22,65.7933333 73.1533333,65.99 75.02,65.99 L75.02,65.99 C75.82,65.99 76.6166667,65.6866667 77.41,65.08 C78.1966667,64.4733333 78.59,63.7733333 78.59,62.98 L78.59,62.98 C78.59,61.58 78.4733333,60.52 78.24,59.8 C78.0066667,59.0733333 77.73,58.6066667 77.41,58.4 C77.0766667,58.1866667 76.6533333,58.0333333 76.14,57.94 L76.14,57.94 C75.6333333,57.8933333 75.26,57.7666667 75.02,57.56 C74.7866667,57.3466667 74.67,56.89 74.67,56.19 L74.67,56.19 C74.67,56.05 74.6133333,55.8633333 74.5,55.63 C74.38,55.3966667 74.32,55.0233333 74.32,54.51 L74.32,54.51 C74.32,53.95 74.3333333,53.5666667 74.36,53.36 C74.38,53.1466667 74.39,52.9233333 74.39,52.69 L74.39,52.69 C74.39,51.9433333 75.4166667,51.3966667 77.47,51.05 C79.5233333,50.6966667 81.16,50.52 82.38,50.52 L82.38,50.52 C84.3333333,50.52 85.93,50.8 87.17,51.36 C88.41,51.92 89.03,53.04 89.03,54.72 L89.03,54.72 Z M50.52,50.8 C50.66,51.36 50.7766667,52.0133333 50.87,52.76 L50.87,52.76 C51.01,53.7866667 51.1733333,54.6033333 51.36,55.21 C51.5466667,55.8166667 51.8266667,56.12 52.2,56.12 L52.2,56.12 C52.7133333,55.28 53.38,54.57 54.2,53.99 C55.0133333,53.4033333 55.56,52.97 55.84,52.69 L55.84,52.69 L58.08,50.52 L57.8,50.52 L54.51,52.13 C54.23,52.13 53.9166667,52.2366667 53.57,52.45 C53.2166667,52.6566667 52.9466667,52.76 52.76,52.76 L52.76,52.76 L52.27,52.69 C52.41,52.3166667 52.7366667,52.0133333 53.25,51.78 C53.7633333,51.5466667 54.3,51.3266667 54.86,51.12 C55.42,50.9066667 55.7933333,50.7766667 55.98,50.73 L55.98,50.73 C56.6333333,50.5433333 57.2533333,50.3333333 57.84,50.1 C58.42,49.8666667 58.78,49.6333333 58.92,49.4 L58.92,49.4 C59.1066667,48.98 59.2833333,48.55 59.45,48.11 C59.61,47.6633333 59.7133333,47.3233333 59.76,47.09 L59.76,47.09 C58.7333333,47.65 57.2633333,48.6066667 55.35,49.96 L55.35,49.96 L55.07,49.75 C55.1166667,49.5166667 55.2933333,49.2966667 55.6,49.09 C55.9,48.8766667 56.2366667,48.6766667 56.61,48.49 L56.61,48.49 C56.7033333,48.4433333 56.89,48.34 57.17,48.18 C57.45,48.0133333 57.66,47.85 57.8,47.69 C57.94,47.5233333 58.01,47.3466667 58.01,47.16 L58.01,47.16 C57.9166667,47.2066667 57.5566667,47.36 56.93,47.62 C56.2966667,47.8733333 55.8633333,48.1166667 55.63,48.35 L55.63,48.35 C55.63,47.93 55.8166667,47.6166667 56.19,47.41 C56.5633333,47.1966667 57.1233333,46.9966667 57.87,46.81 L57.87,46.81 C58.99,46.5766667 59.7133333,46.25 60.04,45.83 L60.04,45.83 C60.46,45.3166667 60.7633333,44.6633333 60.95,43.87 L60.95,43.87 C61.0433333,43.17 61.2766667,42.54 61.65,41.98 L61.65,41.98 C62.63,40.58 64.2066667,39.2033333 66.38,37.85 C68.5466667,36.4966667 70.4933333,35.6566667 72.22,35.33 L72.22,35.33 C72.08,35.33 71.9533333,35.2966667 71.84,35.23 C71.72,35.1566667 71.66,35.0733333 71.66,34.98 L71.66,34.98 C71.66,34.6533333 71.7066667,34.3966667 71.8,34.21 C71.8933333,34.0233333 71.9866667,33.8833333 72.08,33.79 C72.1733333,33.6966667 72.2433333,33.65 72.29,33.65 L72.29,33.65 C72.29,33.6033333 72.1266667,33.57 71.8,33.55 C71.4733333,33.5233333 71.31,33.4166667 71.31,33.23 L71.31,33.23 C71.31,33.1366667 71.6266667,32.8466667 72.26,32.36 C72.8866667,31.8666667 73.5633333,31.4233333 74.29,31.03 C75.0166667,30.63 75.5866667,30.43 76,30.43 L76,30.43 L74.39,32.32 C74.39,32.6933333 74.1366667,33.1366667 73.63,33.65 L73.63,33.65 L79.08,30.64 L79.92,30.92 C79.7333333,31.1066667 79.5366667,31.33 79.33,31.59 C79.1233333,31.8433333 78.9466667,32.0866667 78.8,32.32 L78.8,32.32 L78.88,32.74 C78.4533333,32.74 78.16,32.81 78,32.95 C77.8333333,33.09 77.6566667,33.3133333 77.47,33.62 C77.2833333,33.92 77.0966667,34.21 76.91,34.49 L76.91,34.49 L79.16,33.37 C80.4133333,32.7166667 81.1333333,32.3666667 81.32,32.32 L81.32,32.32 C81.32,32.88 80.8433333,33.44 79.89,34 C78.93,34.56 78.01,34.91 77.13,35.05 L77.13,35.05 C77.5433333,35.2833333 77.8433333,35.4 78.03,35.4 L78.03,35.4 C78.0766667,35.4 78.16,35.39 78.28,35.37 C78.3933333,35.3433333 78.5666667,35.33 78.8,35.33 L78.8,35.33 L78.8,35.61 L79.36,35.33 L79.36,35.61 C79.4133333,35.5633333 79.4966667,35.5066667 79.61,35.44 C79.7233333,35.3666667 79.8266667,35.33 79.92,35.33 L79.92,35.33 C80.0133333,35.33 80.1433333,35.3666667 80.31,35.44 C80.47,35.5066667 80.62,35.5633333 80.76,35.61 L80.76,35.61 C80.86,35.61 81.0466667,35.46 81.32,35.16 C81.6066667,34.8533333 81.8633333,34.7 82.09,34.7 L82.09,34.7 C82.47,34.7 82.8466667,34.8166667 83.22,35.05 L83.22,35.05 L81.32,35.61 C81.74,35.9833333 82.5333333,36.17 83.7,36.17 L83.7,36.17 C83.7,34.8633333 83.8166667,34.21 84.05,34.21 L84.05,34.21 C84.05,34.1633333 84.0033333,34.1066667 83.91,34.04 C83.8233333,33.9666667 83.78,33.8833333 83.78,33.79 L83.78,33.79 C83.78,33.65 83.8833333,33.4866667 84.09,33.3 C84.3033333,33.1133333 84.41,32.9266667 84.41,32.74 L84.41,32.74 C84.41,31.6666667 83.6033333,30.8966667 81.99,30.43 C80.3766667,29.9633333 78.85,29.73 77.41,29.73 L77.41,29.73 L76.77,29.73 C74.95,29.73 73.48,29.8133333 72.36,29.98 C71.2466667,30.14 70.2566667,30.56 69.39,31.24 C68.5233333,31.9133333 67.9966667,32.9966667 67.81,34.49 L67.81,34.49 L68.38,34.56 C69.2133333,34.56 70.0033333,34.1866667 70.75,33.44 L70.75,33.44 C70.8433333,33.44 70.9266667,33.4866667 71,33.58 C71.0666667,33.6733333 71.1,33.7666667 71.1,33.86 L71.1,33.86 C71.1,33.86 70.68,34.1633333 69.84,34.77 L69.84,34.77 C68.16,36.1233333 66.9,37.0566667 66.06,37.57 L66.06,37.57 C66.0133333,37.57 65.9433333,37.5466667 65.85,37.5 C65.7566667,37.4533333 65.6633333,37.43 65.57,37.43 L65.57,37.43 C65.57,36.87 65.9666667,35.9366667 66.76,34.63 L66.76,34.63 C67.0866667,34.07 67.38,33.51 67.64,32.95 C67.8933333,32.39 68.02,31.9 68.02,31.48 L68.02,31.48 C67.3666667,31.9 66.9966667,32.18 66.91,32.32 L66.91,32.32 L66.69,31.97 L65.29,33.44 L65.08,33.37 C64.8933333,33.37 64.5566667,33.5333333 64.07,33.86 C63.5766667,34.1866667 63.26,34.3966667 63.12,34.49 L63.12,34.49 C62.8866667,34.63 62.6066667,34.83 62.28,35.09 C61.9533333,35.3433333 61.6733333,35.5166667 61.44,35.61 L61.44,35.61 L60.88,36.73 C60.4133333,36.73 59.7366667,37.0933333 58.85,37.82 C57.9633333,38.54 57.52,39.0866667 57.52,39.46 L57.52,39.46 C57.8,39.2733333 58.01,39.18 58.15,39.18 L58.15,39.18 C58.3366667,39.18 58.5,39.2733333 58.64,39.46 L58.64,39.46 C58.5,39.6 57.7766667,39.9266667 56.47,40.44 L56.47,40.44 C53.7166667,41.5133333 52.3166667,42.2133333 52.27,42.54 L52.27,42.54 L51.15,47.79 C51.2433333,47.79 51.29,47.93 51.29,48.21 L51.29,48.21 C51.29,48.5366667 51.2666667,48.8066667 51.22,49.02 C51.1733333,49.2266667 51.15,49.3533333 51.15,49.4 L51.15,49.4 C51.5233333,49.1666667 51.99,48.97 52.55,48.81 C53.11,48.6433333 53.4833333,48.5366667 53.67,48.49 L53.67,48.49 L55.07,48.07 L55.07,48.63 C54.6033333,48.63 53.7533333,48.8866667 52.52,49.4 C51.28,49.9133333 50.6133333,50.38 50.52,50.8 L50.52,50.8 Z M68.38,30.29 C67.2133333,30.29 66.37,30.4066667 65.85,30.64 L65.85,30.64 L66.06,30.92 L68.38,30.92 L68.38,30.29 Z M65.29,30.64 C64.7766667,30.64 64.17,30.7466667 63.47,30.96 C62.77,31.1666667 62.42,31.4566667 62.42,31.83 L62.42,31.83 C62.42,32.0633333 62.4666667,32.2266667 62.56,32.32 L62.56,32.32 C62.56,32.04 62.6533333,31.8533333 62.84,31.76 C63.0266667,31.6666667 63.4366667,31.61 64.07,31.59 C64.6966667,31.5633333 65.1033333,31.34 65.29,30.92 L65.29,30.92 L65.29,30.64 Z M58.36,34.49 C57.8466667,34.49 56.9366667,35.32 55.63,36.98 C54.3233333,38.6333333 53.4833333,39.9266667 53.11,40.86 L53.11,40.86 C53.53,40.86 54.4766667,40.36 55.95,39.36 C57.4166667,38.3533333 58.5933333,37.4766667 59.48,36.73 L59.48,36.73 L59.69,37.01 C59.9233333,36.9633333 60.04,36.7766667 60.04,36.45 L60.04,36.45 C60.04,36.2633333 60.2166667,36.03 60.57,35.75 C60.9166667,35.47 61.2533333,35.2266667 61.58,35.02 C61.9066667,34.8066667 62.1633333,34.63 62.35,34.49 L62.35,34.49 C63.5166667,33.79 64.2166667,33.2533333 64.45,32.88 L64.45,32.88 L64.73,33.09 C64.83,32.7633333 65.0666667,32.4266667 65.44,32.08 C65.8066667,31.7266667 66.0133333,31.5266667 66.06,31.48 L66.06,31.48 C65.5,31.7133333 64.45,32.1233333 62.91,32.71 C61.37,33.29 59.8533333,33.8833333 58.36,34.49 L58.36,34.49 Z M80.48,34.21 C80.7133333,34.0233333 81.0166667,33.6266667 81.39,33.02 L81.39,33.02 C81.67,32.5533333 81.95,32.2033333 82.23,31.97 C82.5166667,31.7366667 82.8666667,31.62 83.28,31.62 L83.28,31.62 C83.28,31.8533333 83.2,32.0533333 83.04,32.22 C82.8733333,32.38 82.72,32.5066667 82.58,32.6 C82.4466667,32.6933333 82.3533333,32.7633333 82.3,32.81 L82.3,32.81 C82.0666667,32.95 81.8566667,33.1133333 81.67,33.3 C81.4833333,33.4866667 81.3666667,33.6966667 81.32,33.93 L81.32,33.93 L81.81,33.65 C81.81,33.8366667 81.74,34.0233333 81.6,34.21 C81.46,34.3966667 81.2733333,34.49 81.04,34.49 L81.04,34.49 C80.9533333,34.49 80.85,34.4566667 80.73,34.39 C80.61,34.3166667 80.5266667,34.2566667 80.48,34.21 L80.48,34.21 Z M72.72,32.88 C72.72,32.9733333 72.7533333,33.08 72.82,33.2 C72.8866667,33.3133333 72.9666667,33.3933333 73.06,33.44 L73.06,33.44 L73.83,32.32 C73.7833333,32.32 73.5866667,32.38 73.24,32.5 C72.8933333,32.6133333 72.72,32.74 72.72,32.88 L72.72,32.88 Z M73.06,35.05 C74.32,35.05 75.9566667,34.14 77.97,32.32 L77.97,32.32 C77.17,32.32 76.2933333,32.59 75.34,33.13 C74.3866667,33.6633333 73.6266667,34.3033333 73.06,35.05 L73.06,35.05 Z M64.17,36.73 C63.2366667,37.6633333 62.77,38.13 62.77,38.13 L62.77,38.13 C62.63,38.2233333 62.3866667,38.3866667 62.04,38.62 C61.6866667,38.8533333 61.23,39.1333333 60.67,39.46 L60.67,39.46 C59.5966667,40.2066667 59.0133333,40.58 58.92,40.58 L58.92,40.58 C59.06,40.2066667 59.3866667,39.8933333 59.9,39.64 C60.4133333,39.38 60.74,39.1333333 60.88,38.9 L60.88,38.9 C60.88,38.7133333 60.94,38.48 61.06,38.2 C61.1733333,37.92 61.3,37.71 61.44,37.57 L61.44,37.57 C61.72,37.3833333 62.07,37.1733333 62.49,36.94 C62.91,36.7066667 63.2833333,36.5433333 63.61,36.45 L63.61,36.45 C63.9833333,36.45 64.17,36.5433333 64.17,36.73 L64.17,36.73 Z M56.96,41.98 C56.68,42.54 56.26,43.0066667 55.7,43.38 C55.14,43.7533333 54.8366667,43.94 54.79,43.94 L54.79,43.94 L54.72,43.59 C54.72,43.2633333 55.1866667,42.74 56.12,42.02 C57.0533333,41.2933333 57.8933333,40.72 58.64,40.3 L58.64,40.3 L58.71,40.72 C58.71,40.9533333 58.5233333,41.2333333 58.15,41.56 C57.7766667,41.8866667 57.45,42.05 57.17,42.05 L57.17,42.05 C57.0766667,42.05 57.0066667,42.0266667 56.96,41.98 L56.96,41.98 Z M52.97,46.18 C52.4566667,46.18 52.2,46.0166667 52.2,45.69 L52.2,45.69 C52.2,45.5033333 52.5033333,45.1766667 53.11,44.71 C53.7166667,44.2433333 54.09,44.01 54.23,44.01 L54.23,44.01 L54.23,44.64 C54.4166667,44.64 54.6166667,44.5466667 54.83,44.36 C55.0366667,44.1733333 55.21,44.08 55.35,44.08 L55.35,44.08 C55.8633333,44.08 56.6,43.8466667 57.56,43.38 C58.5133333,42.9133333 59.1533333,42.4466667 59.48,41.98 L59.48,41.98 L59.69,42.26 C59.7366667,42.1666667 59.83,42.0633333 59.97,41.95 C60.11,41.83 60.2266667,41.7466667 60.32,41.7 L60.32,41.7 C60.4133333,41.7 60.52,41.7233333 60.64,41.77 C60.7533333,41.8166667 60.8333333,41.8866667 60.88,41.98 L60.88,41.98 C60.6,42.6333333 59.9366667,43.3333333 58.89,44.08 C57.8366667,44.8266667 56.9366667,45.2233333 56.19,45.27 L56.19,45.27 L57.31,44.15 L56.96,44.15 C56.7733333,44.15 56.3666667,44.3366667 55.74,44.71 C55.1066667,45.0833333 54.6966667,45.3166667 54.51,45.41 L54.51,45.41 C53.5766667,45.9233333 53.0633333,46.18 52.97,46.18 L52.97,46.18 Z M55.91,45.55 C55.91,45.7833333 55.27,46.2733333 53.99,47.02 C52.7033333,47.7666667 51.9433333,48.21 51.71,48.35 L51.71,48.35 C51.85,47.93 52.4,47.3933333 53.36,46.74 C54.3133333,46.0866667 55.14,45.5966667 55.84,45.27 L55.84,45.27 C55.8866667,45.27 55.91,45.3633333 55.91,45.55 L55.91,45.55 Z M57.66,54.23 C58.2666667,54.23 58.57,53.4366667 58.57,51.85 L58.57,51.85 C58.3833333,51.85 57.8933333,52.0833333 57.1,52.55 C56.3066667,53.0166667 55.8866667,53.25 55.84,53.25 L55.84,53.25 C55.5133333,53.7633333 54.99,54.3133333 54.27,54.9 C53.5433333,55.48 53.1566667,55.8633333 53.11,56.05 L53.11,56.05 L57.31,54.09 L57.66,54.23 Z M84.89,67.39 C85.6366667,66.9766667 86.1533333,66.1033333 86.44,64.77 C86.7133333,63.4366667 86.9433333,61.5566667 87.13,59.13 L87.13,59.13 L87.41,56.33 C87.41,55.0233333 87.2933333,53.9966667 87.06,53.25 L87.06,53.25 C87.02,53.0166667 86.1233333,52.7733333 84.37,52.52 C82.6233333,52.26 81.5133333,52.13 81.04,52.13 L81.04,52.13 C80.3866667,52.13 79.42,52.1766667 78.14,52.27 C76.86,52.3633333 76.1466667,52.5033333 76,52.69 L76,52.69 C76,54.37 75.84,55.21 75.52,55.21 L75.52,55.21 L76,55.28 C76.6066667,55.28 77.2266667,55.0833333 77.86,54.69 C78.4866667,54.29 78.8466667,54.0666667 78.94,54.02 L78.94,54.02 C79.92,53.32 80.6433333,52.97 81.11,52.97 L81.11,52.97 C81.5766667,52.97 81.81,53.0633333 81.81,53.25 L81.81,53.25 L81.32,54.09 C81.32,53.67 81.2266667,53.39 81.04,53.25 L81.04,53.25 C80.9533333,53.3433333 80.8366667,53.6 80.69,54.02 C80.55,54.44 80.2,54.8366667 79.64,55.21 L79.64,55.21 C79.5466667,55.07 79.4066667,54.9433333 79.22,54.83 C79.0333333,54.71 78.8933333,54.65 78.8,54.65 L78.8,54.65 C78.5666667,54.65 78.0433333,54.86 77.23,55.28 C76.41,55.7 76,55.98 76,56.12 L76,56.12 C76,56.26 76.5733333,56.61 77.72,57.17 C78.8666667,57.73 79.5533333,58.01 79.78,58.01 L79.78,58.01 C80.1133333,58.01 81.0933333,57.1933333 82.72,55.56 L82.72,55.56 C82.2066667,55.56 81.5533333,55.6766667 80.76,55.91 L80.76,55.91 C79.7333333,56.1433333 79.0333333,56.26 78.66,56.26 L78.66,56.26 C78.5666667,56.1666667 78.52,56.0033333 78.52,55.77 L78.52,55.77 C78.52,55.4433333 78.59,55.28 78.73,55.28 L78.73,55.28 C78.9233333,55.28 79.04,55.5366667 79.08,56.05 L79.08,56.05 L81.81,55.21 C82.3233333,54.79 82.92,54.4166667 83.6,54.09 C84.2733333,53.7633333 84.9366667,53.5766667 85.59,53.53 L85.59,53.53 C85.59,53.9033333 84.9866667,54.6266667 83.78,55.7 C82.56,56.7733333 81.74,57.3566667 81.32,57.45 L81.32,57.45 L81.32,57.87 C81.8333333,57.87 82.3133333,57.73 82.76,57.45 C83.2,57.17 83.4666667,57.0066667 83.56,56.96 L83.56,56.96 C84.4466667,56.3533333 85.17,56.05 85.73,56.05 L85.73,56.05 C86.0166667,56.05 86.2033333,56.1433333 86.29,56.33 L86.29,56.33 L83.63,58.5 L83.63,59.41 C83.4433333,59.27 83.28,59.2 83.14,59.2 L83.14,59.2 C83.0066667,59.2 82.89,59.3633333 82.79,59.69 C82.7033333,60.0166667 82.4933333,60.18 82.16,60.18 L82.16,60.18 C82.02,60.18 81.6966667,60.4133333 81.19,60.88 C80.67,61.3466667 80.2466667,61.6733333 79.92,61.86 L79.92,61.86 C80.34,61.7666667 80.6566667,61.6866667 80.87,61.62 C81.0833333,61.5466667 81.2333333,61.51 81.32,61.51 L81.32,61.51 C81.5066667,61.51 81.6,61.5566667 81.6,61.65 L81.6,61.65 C81.6,61.79 81.32,62.1166667 80.76,62.63 C80.2,63.1433333 79.8966667,63.47 79.85,63.61 L79.85,63.61 C80.0833333,63.61 80.4366667,63.46 80.91,63.16 C81.37,62.8533333 81.7633333,62.7 82.09,62.7 L82.09,62.7 C82.09,63.0266667 81.81,63.3533333 81.25,63.68 C80.69,64.0066667 80.34,64.2166667 80.2,64.31 L80.2,64.31 L81.6,64.31 C80.5333333,65.01 79.6,65.3866667 78.8,65.44 L78.8,65.44 L75.86,68.38 L81.6,65.99 L81.6,66.41 C81.7,66.41 82.0733333,66.0266667 82.72,65.26 C83.3733333,64.4866667 83.7266667,63.9833333 83.78,63.75 L83.78,63.75 C83.5933333,63.75 83.3233333,63.81 82.97,63.93 C82.6166667,64.0433333 82.3466667,64.1 82.16,64.1 L82.16,64.1 C82.3933333,63.6333333 82.99,63.2366667 83.95,62.91 C84.9033333,62.5833333 85.6833333,62.42 86.29,62.42 L86.29,62.42 C86.15,62.6066667 85.6166667,63.0966667 84.69,63.89 L84.69,63.89 C83.9366667,64.45 83.4466667,64.8733333 83.22,65.16 L83.22,65.16 L83.78,65.44 C83.6333333,65.8533333 83.3633333,66.2233333 82.97,66.55 C82.5766667,66.8833333 82.19,67.1866667 81.81,67.46 L81.81,67.46 C81.0233333,67.88 80.4866667,68.3266667 80.2,68.8 L80.2,68.8 C80.3866667,68.8 80.6433333,68.7066667 80.97,68.52 C81.3033333,68.3266667 81.5833333,68.1366667 81.81,67.95 L81.81,67.95 C81.9033333,67.9966667 81.9866667,68.08 82.06,68.2 C82.1266667,68.32 82.16,68.4266667 82.16,68.52 L82.16,68.52 C81.7,68.7466667 80.9433333,69.1066667 79.89,69.6 C78.8366667,70.0866667 78.03,70.4233333 77.47,70.61 L77.47,70.61 L77.47,70.13 C77.89,70.0766667 78.7533333,69.3966667 80.06,68.09 L80.06,68.09 C80.8133333,67.25 81.2833333,66.83 81.47,66.83 L81.47,66.83 C81.23,66.83 80.4933333,67.0766667 79.26,67.57 C78.0266667,68.0566667 77.43,68.3733333 77.47,68.52 L77.47,68.52 L73.83,70.47 L73.55,70.47 C73.41,70.47 73.2933333,70.45 73.2,70.41 C73.1066667,70.3566667 73.06,70.2633333 73.06,70.13 L73.06,70.13 C73.06,69.89 73.4233333,69.42 74.15,68.72 C74.87,68.02 75.3266667,67.5766667 75.52,67.39 L75.52,67.39 C75,67.5766667 74.1466667,68 72.96,68.66 C71.7666667,69.3066667 70.8666667,69.91 70.26,70.47 L70.26,70.47 C71.38,70.7966667 72.5033333,71.0433333 73.63,71.21 C74.7433333,71.37 76.14,71.52 77.82,71.66 L77.82,71.66 C78.24,71.7066667 78.79,71.7533333 79.47,71.8 C80.1433333,71.8533333 80.9233333,71.9466667 81.81,72.08 L81.81,72.08 L83.5,72.36 C84.1933333,72.36 84.88,71.9866667 85.56,71.24 C86.2333333,70.5 86.57,69.7533333 86.57,69 L86.57,69 C86.57,68.7733333 86.5133333,68.4933333 86.4,68.16 C86.28,67.8333333 86.15,67.5766667 86.01,67.39 L86.01,67.39 C85.7766667,67.67 85.4733333,67.94 85.1,68.2 C84.7266667,68.4533333 84.47,68.6266667 84.33,68.72 L84.33,68.72 L83.22,69.56 C83.12,69.7 82.99,69.9366667 82.83,70.27 C82.6633333,70.59 82.5133333,70.8333333 82.38,71 C82.2333333,71.16 82.0233333,71.24 81.75,71.24 L81.75,71.24 C81.6966667,71.24 81.6366667,71.2166667 81.57,71.17 C81.5033333,71.1233333 81.42,71.1 81.32,71.1 L81.32,71.1 C81.32,71.0066667 81.6466667,70.61 82.3,69.91 C82.9533333,69.21 83.3533333,68.86 83.5,68.86 L83.5,68.86 L83.5,68.52 C83.5866667,68.3733333 83.77,68.1966667 84.05,67.99 C84.33,67.7766667 84.61,67.5766667 84.89,67.39 L84.89,67.39 Z M51.99,57.45 C52.0833333,57.45 52.2366667,57.6733333 52.45,58.12 C52.6566667,58.56 52.8766667,58.8733333 53.11,59.06 L53.11,59.06 C53.81,58.4533333 54.5333333,57.7766667 55.28,57.03 L55.28,57.03 C55.56,56.6566667 55.9333333,56.2366667 56.4,55.77 L56.4,55.77 C56.5866667,55.6766667 56.88,55.56 57.28,55.42 C57.6733333,55.28 57.87,55.0933333 57.87,54.86 L57.87,54.86 L57.8,54.65 C57.2866667,54.65 56.19,55.0466667 54.51,55.84 C52.83,56.6333333 51.99,57.17 51.99,57.45 L51.99,57.45 Z M58.64,55.21 C58.22,55.49 57.7766667,55.8633333 57.31,56.33 L57.31,56.33 C55.77,57.6833333 54.8366667,58.36 54.51,58.36 L54.51,58.36 L54.51,58.85 C55.0233333,58.57 55.5966667,58.29 56.23,58.01 C56.8566667,57.73 57.2866667,57.5666667 57.52,57.52 L57.52,57.52 C57.7066667,57.52 58,57.4033333 58.4,57.17 C58.7933333,56.9366667 59.06,56.82 59.2,56.82 L59.2,56.82 C59.2,56.3066667 59.0133333,55.77 58.64,55.21 L58.64,55.21 Z M85.45,56.33 C84.89,56.75 84.12,57.2166667 83.14,57.73 C82.16,58.2433333 81.46,58.5 81.04,58.5 L81.04,58.5 L81.04,58.15 C80.8533333,58.15 80.61,58.3133333 80.31,58.64 C80.0033333,58.9666667 79.78,59.13 79.64,59.13 L79.64,59.13 L79.64,61.09 C79.8266667,61.09 80.5633333,60.6 81.85,59.62 C83.1366667,58.64 84.3366667,57.5433333 85.45,56.33 L85.45,56.33 Z M56.4,65.44 C56.9133333,66.1333333 57.8133333,66.8066667 59.1,67.46 C60.38,68.1133333 61.4166667,68.4666667 62.21,68.52 L62.21,68.52 C62.49,68 62.9333333,67.4033333 63.54,66.73 C64.1466667,66.05 64.45,65.64 64.45,65.5 L64.45,65.5 L63.89,64.88 C63.19,64.88 62.4666667,65.0866667 61.72,65.5 L61.72,65.5 C61.6266667,65.5466667 61.3466667,65.6633333 60.88,65.85 C60.4133333,66.0366667 59.9466667,66.13 59.48,66.13 L59.48,66.13 L59.48,65.44 C59.5733333,65.6666667 59.7366667,65.78 59.97,65.78 L59.97,65.78 C60.39,65.78 60.9633333,65.5833333 61.69,65.19 C62.41,64.79 62.8633333,64.4266667 63.05,64.1 L63.05,64.1 C63.05,63.96 62.9566667,63.8333333 62.77,63.72 C62.5833333,63.6 62.4433333,63.5166667 62.35,63.47 L62.35,63.47 C62.1633333,63.61 61.8266667,63.9033333 61.34,64.35 C60.8466667,64.7966667 60.4133333,65.16 60.04,65.44 L60.04,65.44 C60.0866667,65.1066667 60.3333333,64.6833333 60.78,64.17 C61.22,63.6566667 61.6266667,63.26 62,62.98 L62,62.98 L61.65,62.98 C61.23,62.98 60.6833333,63.0966667 60.01,63.33 C59.33,63.5633333 58.99,63.82 58.99,64.1 L58.99,64.1 L58.71,64.1 C58.71,63.7266667 58.8266667,63.47 59.06,63.33 C59.2933333,63.19 59.6433333,63.0733333 60.11,62.98 L60.11,62.98 C60.95,62.8866667 61.3933333,62.6066667 61.44,62.14 L61.44,62.14 C60.32,60.5066667 59.6666667,59.0366667 59.48,57.73 L59.48,57.73 C59.2,58.1966667 58.5466667,58.85 57.52,59.69 L57.52,59.69 C57.4266667,59.7833333 57.1466667,60.04 56.68,60.46 C56.2133333,60.88 55.9333333,61.2533333 55.84,61.58 L55.84,61.58 C56.1666667,61.58 56.75,61.3933333 57.59,61.02 L57.59,61.02 C58.5233333,60.6466667 59.2,60.46 59.62,60.46 L59.62,60.46 C59.6666667,60.5066667 59.7266667,60.5666667 59.8,60.64 C59.8666667,60.7066667 59.9466667,60.7633333 60.04,60.81 L60.04,60.81 C60.04,61.23 59.9,61.58 59.62,61.86 C59.34,62.14 58.9433333,62.4666667 58.43,62.84 L58.43,62.84 C57.9166667,63.2133333 57.5433333,63.5166667 57.31,63.75 C57.0766667,63.9833333 56.96,64.2866667 56.96,64.66 L56.96,64.66 L58.08,64.1 C58.08,64.52 57.52,64.9666667 56.4,65.44 L56.4,65.44 Z M53.39,59.97 C53.39,61.37 53.67,62.1866667 54.23,62.42 L54.23,62.42 C54.51,61.7666667 55.0933333,61.09 55.98,60.39 L55.98,60.39 C56.6333333,59.83 57.0766667,59.3866667 57.31,59.06 L57.31,59.06 L57.31,59.41 C57.45,59.2233333 57.6033333,59.0266667 57.77,58.82 C57.93,58.6066667 58.0333333,58.43 58.08,58.29 L58.08,58.29 C58.0333333,58.1966667 57.9533333,58.1166667 57.84,58.05 C57.72,57.9766667 57.6133333,57.94 57.52,57.94 L57.52,57.94 C57.24,57.9866667 56.9266667,58.1266667 56.58,58.36 C56.2266667,58.5933333 55.9566667,58.7566667 55.77,58.85 L55.77,58.85 C55.2566667,59.2233333 54.8266667,59.5033333 54.48,59.69 C54.1266667,59.8766667 53.7633333,59.97 53.39,59.97 L53.39,59.97 Z M84.89,59.9 C85.0766667,59.76 85.2766667,59.55 85.49,59.27 C85.7033333,58.99 85.89,58.7933333 86.05,58.68 C86.21,58.56 86.4766667,58.5 86.85,58.5 L86.85,58.5 C86.39,59.2933333 85.69,60.1 84.75,60.92 C83.8166667,61.7333333 82.9533333,62.14 82.16,62.14 L82.16,62.14 C82.58,61.86 83,61.4166667 83.42,60.81 L83.42,60.81 C83.9333333,60.2033333 84.33,59.8066667 84.61,59.62 L84.61,59.62 L84.89,59.9 Z M54.51,62.98 C54.5566667,63.0266667 54.7566667,63.3066667 55.11,63.82 C55.4566667,64.3333333 55.7,64.78 55.84,65.16 L55.84,65.16 C56.0733333,64.5 56.46,63.9133333 57,63.4 C57.5333333,62.8866667 57.87,62.56 58.01,62.42 L58.01,62.42 C58.57,61.9533333 58.9666667,61.58 59.2,61.3 L59.2,61.3 L57.31,61.86 C57.1233333,62.0466667 56.6566667,62.2466667 55.91,62.46 C55.1633333,62.6666667 54.6966667,62.84 54.51,62.98 L54.51,62.98 Z M65.64,65.71 C65.36,65.71 65.08,65.8966667 64.8,66.27 C64.52,66.6433333 64.31,67.0166667 64.17,67.39 L64.17,67.39 C64.4966667,67.2566667 64.9066667,67.0233333 65.4,66.69 C65.8866667,66.3633333 66.2233333,66.13 66.41,65.99 L66.41,65.99 C66.3633333,65.8033333 66.2,65.71 65.92,65.71 L65.92,65.71 L65.64,65.71 Z M82.66,67.95 C82.66,67.81 83.09,67.4633333 83.95,66.91 C84.8166667,66.3433333 85.3166667,66.06 85.45,66.06 L85.45,66.06 L85.45,66.48 C85.3566667,66.5266667 85.03,66.75 84.47,67.15 C83.91,67.5433333 83.3266667,67.9033333 82.72,68.23 L82.72,68.23 C82.68,68.23 82.66,68.1366667 82.66,67.95 L82.66,67.95 Z M65.22,69.07 C65.4533333,69.07 65.8033333,68.7666667 66.27,68.16 C66.7366667,67.5533333 66.97,67.11 66.97,66.83 L66.97,66.83 L66.91,66.55 C66.53,66.83 65.5233333,67.39 63.89,68.23 L63.89,68.23 L63.61,67.67 C63.5166667,67.9966667 63.33,68.28 63.05,68.52 L63.05,68.52 C63.6566667,68.8866667 64.38,69.07 65.22,69.07 L65.22,69.07 Z M68.86,66.83 C68.6266667,66.8833333 68.1633333,67.2566667 67.47,67.95 L67.47,67.95 C67.79,67.95 68.1733333,67.8233333 68.62,67.57 C69.06,67.3166667 69.42,67.1633333 69.7,67.11 L69.7,67.11 C69.3266667,66.9233333 69.0466667,66.83 68.86,66.83 L68.86,66.83 Z M68.79,70.19 C69.3033333,70.19 69.8866667,69.68 70.54,68.66 L70.54,68.66 C71.0533333,67.9066667 71.4266667,67.4833333 71.66,67.39 L71.66,67.39 L71.1,67.32 C70.68,67.32 69.83,67.6133333 68.55,68.2 C67.27,68.78 66.5566667,69.2333333 66.41,69.56 L66.41,69.56 C66.69,69.56 67.0766667,69.6666667 67.57,69.88 C68.0566667,70.0866667 68.4633333,70.19 68.79,70.19 L68.79,70.19 Z M73.27,67.32 C72.8033333,67.32 72.36,67.53 71.94,67.95 C71.52,68.37 71.24,68.8366667 71.1,69.35 L71.1,69.35 C71.2866667,69.21 71.6733333,68.92 72.26,68.48 C72.84,68.0333333 73.3633333,67.7633333 73.83,67.67 L73.83,67.67 C73.7833333,67.53 73.7166667,67.4366667 73.63,67.39 C73.53,67.3433333 73.41,67.32 73.27,67.32 L73.27,67.32 Z" id="Shape" fill="#FFFFFF"></path>
        </g>
    </g>
</svg>