<svg height="100%" width="100%" id="svg" viewBox="0 0 1440 700" xmlns="http://www.w3.org/2000/svg" class="transition duration-300 ease-in-out delay-150"><path d="M 0,700 C 0,700 0,175 0,175 C 42.42024637183113,153.99562504956515 84.84049274366225,132.99125009913027 130,141 C 175.15950725633775,149.00874990086973 223.05827539718206,186.03062465304396 279,191 C 334.94172460281794,195.96937534695604 398.9264056676096,168.88625128869384 445,153 C 491.0735943323904,137.11374871130616 519.2361019323799,132.4243701921806 561,149 C 602.7638980676201,165.5756298078194 658.129186602871,203.41626794258372 716,199 C 773.870813397129,194.58373205741628 834.2471516561366,147.91055803748446 879,156 C 923.7528483438634,164.08944196251554 952.8822067725821,226.94149990747837 992,222 C 1031.117793227418,217.05850009252163 1080.2240212535355,144.32344233260199 1138,125 C 1195.7759787464645,105.676557667398 1262.2217082132756,139.76473076211371 1314,157 C 1365.7782917867244,174.23526923788629 1402.8891458933622,174.61763461894316 1440,175 C 1440,175 1440,700 1440,700 Z" stroke="none" stroke-width="0" fill="#53a0fe66" class="transition-all duration-300 ease-in-out delay-150"></path><path d="M 0,700 C 0,700 0,350 0,350 C 62.89558275397182,370.9121573396072 125.79116550794365,391.82431467921435 169,378 C 212.20883449205635,364.17568532078565 235.73092072219725,315.6148986227497 275,321 C 314.26907927780275,326.3851013772503 369.28515160326737,385.71609082978665 420,389 C 470.71484839673263,392.28390917021335 517.1284728647335,339.52073805810363 562,314 C 606.8715271352665,288.47926194189637 650.2009569377991,290.20095693779905 701,312 C 751.7990430622009,333.79904306220095 810.0676993840704,375.67543419070023 866,367 C 921.9323006159296,358.32456580929977 975.5282455259191,299.0973062994 1021,295 C 1066.4717544740809,290.9026937006 1103.8193185122525,341.9353406117 1146,342 C 1188.1806814877475,342.0646593883 1235.1944804250709,291.1613312538 1285,284 C 1334.8055195749291,276.8386687462 1387.4027597874647,313.4193343731 1440,350 C 1440,350 1440,700 1440,700 Z" stroke="none" stroke-width="0" fill="#53a0fe88" class="transition-all duration-300 ease-in-out delay-150"></path><path d="M 0,700 C 0,700 0,525 0,525 C 52.11669618546617,545.4626477041423 104.23339237093234,565.9252954082847 146,578 C 187.76660762906766,590.0747045917153 219.1831267017368,593.7614660710037 269,564 C 318.8168732982632,534.2385339289963 387.03410082212054,471.0288403077004 445,461 C 502.96589917787946,450.9711596922996 550.680470009781,494.1231726981945 591,513 C 631.319529990219,531.8768273018055 664.2440191387558,526.4784688995215 709,517 C 753.7559808612442,507.52153110047846 810.3434534351952,493.9629517037194 869,495 C 927.6565465648048,496.0370482962806 988.382167120463,511.669724285601 1030,523 C 1071.617832879537,534.330275714399 1094.1278780829523,541.3581511538766 1131,546 C 1167.8721219170477,550.6418488461234 1219.1063205477278,552.8976710988924 1273,549 C 1326.8936794522722,545.1023289011076 1383.4468397261362,535.0511644505539 1440,525 C 1440,525 1440,700 1440,700 Z" stroke="none" stroke-width="0" fill="#53a0feff" class="transition-all duration-300 ease-in-out delay-150"></path></svg>
