<svg height="100%" width="100%" id="svg" viewBox="0 0 1440 600" xmlns="http://www.w3.org/2000/svg" class="transition duration-300 ease-in-out delay-150"><defs><linearGradient id="gradient"><stop offset="5%" stop-color="#b4ed5088"></stop><stop offset="95%" stop-color="#53a0fe88"></stop></linearGradient></defs><path d="M 0,600 C 0,600 0,200 0,200 C 73.89473684210523,152.69856459330143 147.78947368421046,105.39712918660285 244,131 C 340.21052631578954,156.60287081339715 458.73684210526324,255.11004784688998 566,272 C 673.2631578947368,288.88995215311 769.2631578947369,224.1626794258373 877,182 C 984.7368421052631,139.8373205741627 1104.2105263157894,120.23923444976077 1200,127 C 1295.7894736842106,133.76076555023923 1367.8947368421054,166.8803827751196 1440,200 C 1440,200 1440,600 1440,600 Z" stroke="none" stroke-width="0" fill="url(#gradient)" class="transition-all duration-300 ease-in-out delay-150"></path><defs><linearGradient id="gradient"><stop offset="5%" stop-color="#b4ed50ff"></stop><stop offset="95%" stop-color="#53a0feff"></stop></linearGradient></defs><path d="M 0,600 C 0,600 0,400 0,400 C 123.12918660287082,396.1531100478469 246.25837320574163,392.3062200956938 340,395 C 433.74162679425837,397.6937799043062 498.0956937799043,406.9282296650718 595,411 C 691.9043062200957,415.0717703349282 821.3588516746412,413.9808612440191 916,401 C 1010.6411483253588,388.0191387559809 1070.468899521531,363.1483253588517 1152,361 C 1233.531100478469,358.8516746411483 1336.7655502392345,379.42583732057415 1440,400 C 1440,400 1440,600 1440,600 Z" stroke="none" stroke-width="0" fill="url(#gradient)" class="transition-all duration-300 ease-in-out delay-150"></path></svg>
