<?xml version="1.0" encoding="UTF-8"?>
<svg width="1440px" height="2874px" viewBox="0 0 1440 2874" version="1.1" xmlns="http://www.w3.org/2000/svg" xmlns:xlink="http://www.w3.org/1999/xlink">
    <!-- Generator: Sketch 44.1 (41455) - http://www.bohemiancoding.com/sketch -->
    <title>Slice 1</title>
    <desc>Created with Sketch.</desc>
    <defs></defs>
    <g id="Page-1" stroke="none" stroke-width="1" fill="none" fill-rule="evenodd">
        <g id="wave-bottom-Kopie" fill="#53A0FE">
            <rect id="Rectangle" x="0" y="476" width="1440" height="2400"></rect>
            <path d="M0,581 C0,581 0,56 0,56 C42.4202464,34.995625 84.8404927,13.9912501 130,22 C175.159507,30.0087499 223.058275,67.0306247 279,72 C334.941725,76.9693753 398.926406,49.8862513 445,34 C491.073594,18.1137487 519.236102,13.4243702 561,30 C602.763898,46.5756298 658.129187,84.4162679 716,80 C773.870813,75.5837321 834.247152,28.910558 879,37 C923.752848,45.089442 952.882207,107.9415 992,103 C1031.11779,98.0585001 1080.22402,25.3234423 1138,6 C1195.77598,-13.3234423 1262.22171,20.7647308 1314,38 C1365.77829,55.2352692 1402.88915,55.6176346 1440,56 C1440,56 1440,581 1440,581 L0,581 Z" id="Shape" fill-opacity="0.4" fill-rule="nonzero"></path>
            <path d="M0,581 C0,581 0,231 0,231 C62.8955828,251.912157 125.791166,272.824315 169,259 C212.208834,245.175685 235.730921,196.614899 275,202 C314.269079,207.385101 369.285152,266.716091 420,270 C470.714848,273.283909 517.128473,220.520738 562,195 C606.871527,169.479262 650.200957,171.200957 701,193 C751.799043,214.799043 810.067699,256.675434 866,248 C921.932301,239.324566 975.528246,180.097306 1021,176 C1066.47175,171.902694 1103.81932,222.935341 1146,223 C1188.18068,223.064659 1235.19448,172.161331 1285,165 C1334.80552,157.838669 1387.40276,194.419334 1440,231 C1440,231 1440,581 1440,581 L0,581 Z" id="Shape" fill-opacity="0.533333333" fill-rule="nonzero"></path>
            <path d="M0,581 C0,581 0,406 0,406 C52.1166962,426.462648 104.233392,446.925295 146,459 C187.766608,471.074705 219.183127,474.761466 269,445 C318.816873,415.238534 387.034101,352.02884 445,342 C502.965899,331.97116 550.68047,375.123173 591,394 C631.31953,412.876827 664.244019,407.478469 709,398 C753.755981,388.521531 810.343453,374.962952 869,376 C927.656547,377.037048 988.382167,392.669724 1030,404 C1071.61783,415.330276 1094.12788,422.358151 1131,427 C1167.87212,431.641849 1219.10632,433.897671 1273,430 C1326.89368,426.102329 1383.44684,416.051164 1440,406 C1440,406 1440,581 1440,581 L0,581 Z" id="Shape" fill-rule="nonzero"></path>
        </g>
    </g>
</svg>