<svg height="100%" width="100%" id="svg" viewBox="0 0 1440 600" xmlns="http://www.w3.org/2000/svg" class="transition duration-300 ease-in-out delay-150"><defs><linearGradient id="gradient"><stop offset="5%" stop-color="#b4ed5088"></stop><stop offset="95%" stop-color="#53a0fe88"></stop></linearGradient></defs><path d="M 0,600 C 0,600 0,200 0,200 C 77.64102564102564,211.96923076923076 155.28205128205127,223.93846153846152 246,236 C 336.71794871794873,248.06153846153848 440.51282051282055,260.2153846153846 519,226 C 597.4871794871794,191.7846153846154 650.6666666666665,111.20000000000002 734,125 C 817.3333333333335,138.79999999999998 930.8205128205127,246.98461538461544 1004,269 C 1077.1794871794873,291.01538461538456 1110.0512820512822,226.86153846153843 1176,201 C 1241.9487179487178,175.13846153846157 1340.974358974359,187.56923076923078 1440,200 C 1440,200 1440,600 1440,600 Z" stroke="none" stroke-width="0" fill="url(#gradient)" class="transition-all duration-300 ease-in-out delay-150" transform="rotate(-180 720 300)"></path><defs><linearGradient id="gradient"><stop offset="5%" stop-color="#b4ed50ff"></stop><stop offset="95%" stop-color="#53a0feff"></stop></linearGradient></defs><path d="M 0,600 C 0,600 0,400 0,400 C 81.33076923076922,431.80256410256413 162.66153846153844,463.6051282051282 242,453 C 321.33846153846156,442.3948717948718 398.6846153846154,389.3820512820513 482,392 C 565.3153846153846,394.6179487179487 654.6000000000001,452.8666666666666 724,447 C 793.3999999999999,441.1333333333334 842.9153846153845,371.15128205128207 929,359 C 1015.0846153846155,346.84871794871793 1137.7384615384615,392.5282051282052 1229,409 C 1320.2615384615385,425.4717948717948 1380.1307692307691,412.7358974358974 1440,400 C 1440,400 1440,600 1440,600 Z" stroke="none" stroke-width="0" fill="url(#gradient)" class="transition-all duration-300 ease-in-out delay-150" transform="rotate(-180 720 300)"></path></svg>
